<?xml version="1.0" encoding="UTF-8" standalone="no"?>
<!DOCTYPE svg PUBLIC "-//W3C//DTD SVG 1.1//EN"
 "http://www.w3.org/Graphics/SVG/1.1/DTD/svg11.dtd">
<!-- Generated by graphviz version 2.47.3 (20210619.1520)
 -->
<!-- Title: dependencies Pages: 1 -->
<svg width="316pt" height="174pt"
 viewBox="0.00 0.00 316.00 173.80" xmlns="http://www.w3.org/2000/svg" xmlns:xlink="http://www.w3.org/1999/xlink">
<g id="graph0" class="graph" transform="scale(1 1) rotate(0) translate(4 169.8)">
<title>dependencies</title>
<polygon fill="white" stroke="transparent" points="-4,4 -4,-169.8 312,-169.8 312,4 -4,4"/>
<text text-anchor="middle" x="154" y="-8.2" font-family="sans-serif" font-size="14.00">dependencies</text>
<g id="clust1" class="cluster">
<title>cluster_BlockchainModule</title>
<polygon fill="none" stroke="black" stroke-dasharray="1,5" points="8,-32.8 8,-157.8 300,-157.8 300,-32.8 8,-32.8"/>
</g>
<g id="clust4" class="cluster">
<title>cluster_BlockchainModule_imports</title>
<polygon fill="none" stroke="black" points="186,-40.8 186,-92.8 292,-92.8 292,-40.8 186,-40.8"/>
</g>
<g id="clust2" class="cluster">
<title>cluster_BlockchainModule_declarations</title>
<polygon fill="none" stroke="black" points="16,-40.8 16,-92.8 178,-92.8 178,-40.8 16,-40.8"/>
</g>
<!-- BlockchainComponent -->
<g id="node1" class="node">
<title>BlockchainComponent</title>
<polygon fill="#ffffb3" stroke="black" points="169.59,-84.8 24.41,-84.8 24.41,-48.8 169.59,-48.8 169.59,-84.8"/>
<text text-anchor="middle" x="97" y="-62.6" font-family="Times,serif" font-size="14.00">BlockchainComponent</text>
</g>
<!-- BlockchainModule -->
<g id="node2" class="node">
<title>BlockchainModule</title>
<polygon fill="#8dd3c7" stroke="black" points="224.81,-149.8 221.81,-153.8 200.81,-153.8 197.81,-149.8 101.19,-149.8 101.19,-113.8 224.81,-113.8 224.81,-149.8"/>
<text text-anchor="middle" x="163" y="-127.6" font-family="Times,serif" font-size="14.00">BlockchainModule</text>
</g>
<!-- BlockchainComponent&#45;&gt;BlockchainModule -->
<g id="edge1" class="edge">
<title>BlockchainComponent&#45;&gt;BlockchainModule</title>
<path fill="none" stroke="black" d="M135.45,-84.91C135.45,-84.91 135.45,-103.79 135.45,-103.79"/>
<polygon fill="black" stroke="black" points="131.95,-103.79 135.45,-113.79 138.95,-103.79 131.95,-103.79"/>
</g>
<!-- ChartModule -->
<g id="node3" class="node">
<title>ChartModule</title>
<polygon fill="#8dd3c7" stroke="black" points="284.15,-84.8 281.15,-88.8 260.15,-88.8 257.15,-84.8 193.85,-84.8 193.85,-48.8 284.15,-48.8 284.15,-84.8"/>
<text text-anchor="middle" x="239" y="-62.6" font-family="Times,serif" font-size="14.00">ChartModule</text>
</g>
<!-- ChartModule&#45;&gt;BlockchainModule -->
<g id="edge2" class="edge">
<title>ChartModule&#45;&gt;BlockchainModule</title>
<path fill="none" stroke="black" d="M209.16,-84.91C209.16,-84.91 209.16,-103.79 209.16,-103.79"/>
<polygon fill="black" stroke="black" points="205.66,-103.79 209.16,-113.79 212.66,-103.79 205.66,-103.79"/>
</g>
</g>
</svg>
