<?xml version="1.0" encoding="UTF-8" standalone="no"?>
<!DOCTYPE svg PUBLIC "-//W3C//DTD SVG 1.1//EN"
 "http://www.w3.org/Graphics/SVG/1.1/DTD/svg11.dtd">
<!-- Generated by graphviz version 2.47.3 (20210619.1520)
 -->
<!-- Title: dependencies Pages: 1 -->
<svg width="952pt" height="247pt"
 viewBox="0.00 0.00 952.00 246.80" xmlns="http://www.w3.org/2000/svg" xmlns:xlink="http://www.w3.org/1999/xlink">
<g id="graph0" class="graph" transform="scale(1 1) rotate(0) translate(4 242.8)">
<title>dependencies</title>
<polygon fill="white" stroke="transparent" points="-4,4 -4,-242.8 948,-242.8 948,4 -4,4"/>
<text text-anchor="middle" x="472" y="-8.2" font-family="sans-serif" font-size="14.00">dependencies</text>
<g id="clust1" class="cluster">
<title>cluster_AboutModule</title>
<polygon fill="none" stroke="black" stroke-dasharray="1,5" points="8,-32.8 8,-157.8 320,-157.8 320,-32.8 8,-32.8"/>
</g>
<g id="clust2" class="cluster">
<title>cluster_AboutModule_declarations</title>
<polygon fill="none" stroke="black" points="180,-40.8 180,-92.8 312,-92.8 312,-40.8 180,-40.8"/>
</g>
<g id="clust4" class="cluster">
<title>cluster_AboutModule_imports</title>
<polygon fill="none" stroke="black" points="16,-40.8 16,-92.8 172,-92.8 172,-40.8 16,-40.8"/>
</g>
<g id="clust14" class="cluster">
<title>cluster_AppModule</title>
<polygon fill="none" stroke="black" stroke-dasharray="1,5" points="328,-32.8 328,-230.8 618,-230.8 618,-32.8 328,-32.8"/>
</g>
<g id="clust15" class="cluster">
<title>cluster_AppModule_declarations</title>
<polygon fill="none" stroke="black" points="488,-40.8 488,-92.8 610,-92.8 610,-40.8 488,-40.8"/>
</g>
<g id="clust17" class="cluster">
<title>cluster_AppModule_imports</title>
<polygon fill="none" stroke="black" points="336,-40.8 336,-92.8 480,-92.8 480,-40.8 336,-40.8"/>
</g>
<g id="clust19" class="cluster">
<title>cluster_AppModule_bootstrap</title>
<polygon fill="none" stroke="black" points="416,-170.8 416,-222.8 540,-222.8 540,-170.8 416,-170.8"/>
</g>
<g id="clust27" class="cluster">
<title>cluster_HomeModule</title>
<polygon fill="none" stroke="black" stroke-dasharray="1,5" points="626,-32.8 626,-157.8 936,-157.8 936,-32.8 626,-32.8"/>
</g>
<g id="clust28" class="cluster">
<title>cluster_HomeModule_declarations</title>
<polygon fill="none" stroke="black" points="796,-40.8 796,-92.8 928,-92.8 928,-40.8 796,-40.8"/>
</g>
<g id="clust30" class="cluster">
<title>cluster_HomeModule_imports</title>
<polygon fill="none" stroke="black" points="634,-40.8 634,-92.8 788,-92.8 788,-40.8 634,-40.8"/>
</g>
<!-- AboutComponent -->
<g id="node1" class="node">
<title>AboutComponent</title>
<polygon fill="#ffffb3" stroke="black" points="304.33,-84.8 187.67,-84.8 187.67,-48.8 304.33,-48.8 304.33,-84.8"/>
<text text-anchor="middle" x="246" y="-62.6" font-family="Times,serif" font-size="14.00">AboutComponent</text>
</g>
<!-- AboutModule -->
<g id="node2" class="node">
<title>AboutModule</title>
<polygon fill="#8dd3c7" stroke="black" points="217.05,-149.8 214.05,-153.8 193.05,-153.8 190.05,-149.8 122.95,-149.8 122.95,-113.8 217.05,-113.8 217.05,-149.8"/>
<text text-anchor="middle" x="170" y="-127.6" font-family="Times,serif" font-size="14.00">AboutModule</text>
</g>
<!-- AboutComponent&#45;&gt;AboutModule -->
<g id="edge1" class="edge">
<title>AboutComponent&#45;&gt;AboutModule</title>
<path fill="none" stroke="black" d="M202.55,-84.91C202.55,-84.91 202.55,-103.79 202.55,-103.79"/>
<polygon fill="black" stroke="black" points="199.05,-103.79 202.55,-113.79 206.05,-103.79 199.05,-103.79"/>
</g>
<!-- AboutRoutingModule -->
<g id="node3" class="node">
<title>AboutRoutingModule</title>
<polygon fill="#8dd3c7" stroke="black" points="163.67,-84.8 160.67,-88.8 139.67,-88.8 136.67,-84.8 24.33,-84.8 24.33,-48.8 163.67,-48.8 163.67,-84.8"/>
<text text-anchor="middle" x="94" y="-62.6" font-family="Times,serif" font-size="14.00">AboutRoutingModule</text>
</g>
<!-- AboutRoutingModule&#45;&gt;AboutModule -->
<g id="edge2" class="edge">
<title>AboutRoutingModule&#45;&gt;AboutModule</title>
<path fill="none" stroke="black" d="M143.28,-84.91C143.28,-84.91 143.28,-103.79 143.28,-103.79"/>
<polygon fill="black" stroke="black" points="139.78,-103.79 143.28,-113.79 146.78,-103.79 139.78,-103.79"/>
</g>
<!-- AppComponent -->
<g id="node4" class="node">
<title>AppComponent</title>
<polygon fill="#ffffb3" stroke="black" points="601.94,-84.8 496.06,-84.8 496.06,-48.8 601.94,-48.8 601.94,-84.8"/>
<text text-anchor="middle" x="549" y="-62.6" font-family="Times,serif" font-size="14.00">AppComponent</text>
</g>
<!-- AppModule -->
<g id="node5" class="node">
<title>AppModule</title>
<polygon fill="#8dd3c7" stroke="black" points="519.66,-149.8 516.66,-153.8 495.66,-153.8 492.66,-149.8 436.34,-149.8 436.34,-113.8 519.66,-113.8 519.66,-149.8"/>
<text text-anchor="middle" x="478" y="-127.6" font-family="Times,serif" font-size="14.00">AppModule</text>
</g>
<!-- AppComponent&#45;&gt;AppModule -->
<g id="edge3" class="edge">
<title>AppComponent&#45;&gt;AppModule</title>
<path fill="none" stroke="black" d="M508.05,-84.91C508.05,-84.91 508.05,-103.79 508.05,-103.79"/>
<polygon fill="black" stroke="black" points="504.55,-103.79 508.05,-113.79 511.55,-103.79 504.55,-103.79"/>
</g>
<!-- AppComponent  -->
<g id="node7" class="node">
<title>AppComponent </title>
<polygon fill="#80b1d3" stroke="black" points="532.44,-214.8 423.56,-214.8 423.56,-178.8 532.44,-178.8 532.44,-214.8"/>
<text text-anchor="middle" x="478" y="-192.6" font-family="Times,serif" font-size="14.00">AppComponent </text>
</g>
<!-- AppModule&#45;&gt;AppComponent  -->
<g id="edge5" class="edge">
<title>AppModule&#45;&gt;AppComponent </title>
<path fill="none" stroke="black" stroke-dasharray="1,5" d="M478,-149.91C478,-149.91 478,-168.79 478,-168.79"/>
<polygon fill="black" stroke="black" points="474.5,-168.79 478,-178.79 481.5,-168.79 474.5,-168.79"/>
</g>
<!-- AppRoutingModule -->
<g id="node6" class="node">
<title>AppRoutingModule</title>
<polygon fill="#8dd3c7" stroke="black" points="472.27,-84.8 469.27,-88.8 448.27,-88.8 445.27,-84.8 343.73,-84.8 343.73,-48.8 472.27,-48.8 472.27,-84.8"/>
<text text-anchor="middle" x="408" y="-62.6" font-family="Times,serif" font-size="14.00">AppRoutingModule</text>
</g>
<!-- AppRoutingModule&#45;&gt;AppModule -->
<g id="edge4" class="edge">
<title>AppRoutingModule&#45;&gt;AppModule</title>
<path fill="none" stroke="black" d="M454.28,-84.91C454.28,-84.91 454.28,-103.79 454.28,-103.79"/>
<polygon fill="black" stroke="black" points="450.78,-103.79 454.28,-113.79 457.78,-103.79 450.78,-103.79"/>
</g>
<!-- HomeComponent -->
<g id="node8" class="node">
<title>HomeComponent</title>
<polygon fill="#ffffb3" stroke="black" points="919.55,-84.8 804.45,-84.8 804.45,-48.8 919.55,-48.8 919.55,-84.8"/>
<text text-anchor="middle" x="862" y="-62.6" font-family="Times,serif" font-size="14.00">HomeComponent</text>
</g>
<!-- HomeModule -->
<g id="node9" class="node">
<title>HomeModule</title>
<polygon fill="#8dd3c7" stroke="black" points="832.76,-149.8 829.76,-153.8 808.76,-153.8 805.76,-149.8 739.24,-149.8 739.24,-113.8 832.76,-113.8 832.76,-149.8"/>
<text text-anchor="middle" x="786" y="-127.6" font-family="Times,serif" font-size="14.00">HomeModule</text>
</g>
<!-- HomeComponent&#45;&gt;HomeModule -->
<g id="edge6" class="edge">
<title>HomeComponent&#45;&gt;HomeModule</title>
<path fill="none" stroke="black" d="M818.55,-84.91C818.55,-84.91 818.55,-103.79 818.55,-103.79"/>
<polygon fill="black" stroke="black" points="815.05,-103.79 818.55,-113.79 822.05,-103.79 815.05,-103.79"/>
</g>
<!-- HomeRoutingModule -->
<g id="node10" class="node">
<title>HomeRoutingModule</title>
<polygon fill="#8dd3c7" stroke="black" points="780.38,-84.8 777.38,-88.8 756.38,-88.8 753.38,-84.8 641.62,-84.8 641.62,-48.8 780.38,-48.8 780.38,-84.8"/>
<text text-anchor="middle" x="711" y="-62.6" font-family="Times,serif" font-size="14.00">HomeRoutingModule</text>
</g>
<!-- HomeRoutingModule&#45;&gt;HomeModule -->
<g id="edge7" class="edge">
<title>HomeRoutingModule&#45;&gt;HomeModule</title>
<path fill="none" stroke="black" d="M759.78,-84.91C759.78,-84.91 759.78,-103.79 759.78,-103.79"/>
<polygon fill="black" stroke="black" points="756.28,-103.79 759.78,-113.79 763.28,-103.79 756.28,-103.79"/>
</g>
</g>
</svg>
